<svg xmlns="http://www.w3.org/2000/svg" width="101.738" height="143.923" viewBox="0 0 101.738 143.923">
  <g id="process1_img" transform="translate(-0.004 0)">
    <path id="Path_463" data-name="Path 463" d="M293.788,163.01a2.481,2.481,0,0,1-1.379-4.546l10.469-6.98a7.424,7.424,0,0,0,3.318-6.194V118.344a7.445,7.445,0,0,0-7.445-7.445h-4.963a2.481,2.481,0,1,1,0-4.962h4.963a12.421,12.421,0,0,1,12.407,12.407V145.29a12.374,12.374,0,0,1-5.525,10.325l-10.466,6.978a2.482,2.482,0,0,1-1.378.417Zm0,0" transform="translate(-209.416 -76.159)" fill="#90bae1"/>
    <path id="Path_464" data-name="Path 464" d="M84.372,93.245v49.628c-34.74,0-34.74-29.777-69.479-29.777v-4.144a2.548,2.548,0,0,0-.5-1.489L.5,92.252a2.482,2.482,0,0,1,1.985-3.97H79.41a4.977,4.977,0,0,1,4.962,4.963Zm0,0" transform="translate(0 -63.466)" fill="#b0d3f0"/>
    <path id="Path_465" data-name="Path 465" d="M122.448,206.335V211.3a34.487,34.487,0,0,1-6.253,19.851H59.222A34.5,34.5,0,0,1,52.969,211.3v-34.74c34.74,0,34.74,29.777,69.479,29.777Zm0,0" transform="translate(-38.077 -126.928)" fill="#2fa8cc"/>
    <path id="Path_466" data-name="Path 466" d="M109.656,410.466H40.439a5,5,0,0,1-5-5.878l5.73-29.778a5.056,5.056,0,0,1,5-4.046h57.758a5.057,5.057,0,0,1,5,4.046l5.73,29.778a5,5,0,0,1-5,5.878Zm0,0" transform="translate(-25.415 -266.543)" fill="#bdc3c7"/>
    <g id="Group_76" data-name="Group 76" transform="translate(22.337 114.147)">
      <path id="Path_467" data-name="Path 467" d="M163.03,414.76a8.685,8.685,0,1,1-8.685-8.685A8.685,8.685,0,0,1,163.03,414.76Zm0,0" transform="translate(-127.05 -406.075)" fill="#e6e7e8"/>
      <path id="Path_468" data-name="Path 468" d="M89.379,446.349a4.963,4.963,0,1,1-4.963-4.962A4.963,4.963,0,0,1,89.379,446.349Zm0,0" transform="translate(-79.453 -431.461)" fill="#e6e7e8"/>
      <path id="Path_469" data-name="Path 469" d="M248.274,446.349a4.963,4.963,0,1,1-4.963-4.962A4.964,4.964,0,0,1,248.274,446.349Zm0,0" transform="translate(-193.683 -431.461)" fill="#e6e7e8"/>
    </g>
    <path id="Path_470" data-name="Path 470" d="M81.935,211.867a2.482,2.482,0,0,0-2.482,2.482v2.482a2.481,2.481,0,1,0,4.962,0v-2.482A2.481,2.481,0,0,0,81.935,211.867Zm0,0" transform="translate(-57.116 -152.312)" fill="#9fc9d3"/>
    <path id="Path_471" data-name="Path 471" d="M81.935,256a2.482,2.482,0,0,0-2.482,2.482v14.888a2.481,2.481,0,1,0,4.962,0V258.486A2.481,2.481,0,0,0,81.935,256Zm0,0" transform="translate(-57.116 -184.042)" fill="#9fc9d3"/>
    <path id="Path_472" data-name="Path 472" d="M239.446,402.209H232a2.482,2.482,0,1,1,0-4.963h7.445a2.482,2.482,0,1,1,0,4.963Zm0,0" transform="translate(-164.999 -285.581)" fill="#e6e7e8"/>
    <path id="Path_473" data-name="Path 473" d="M89.379,402.209H81.935a2.482,2.482,0,1,1,0-4.963h7.444a2.482,2.482,0,1,1,0,4.963Zm0,0" transform="translate(-57.116 -285.581)" fill="#e6e7e8"/>
    <path id="Path_474" data-name="Path 474" d="M200.841,54.509l-3.5,8.387H176.028A19.808,19.808,0,0,1,200.841,54.509Zm0,0" transform="translate(-126.544 -38.08)" fill="#24ae5f"/>
    <path id="Path_475" data-name="Path 475" d="M190.5,88.281l-11.786,28.238a19.834,19.834,0,0,1-10.671-25.955,17.716,17.716,0,0,1,1.142-2.283Zm0,0" transform="translate(-119.701 -63.465)" fill="#4fba6f"/>
    <path id="Path_476" data-name="Path 476" d="M215.539,89.062a9.926,9.926,0,1,0-7.646,18.32Zm0,0" transform="translate(-145.063 -63.475)" fill="#71c285"/>
    <path id="Path_477" data-name="Path 477" d="M33.255,24.816H18.987L0,5.808A19.851,19.851,0,0,1,33.255,24.816Zm0,0" transform="translate(0 0)" fill="#f0c419"/>
    <path id="Path_478" data-name="Path 478" d="M81.8,88.281a19.664,19.664,0,0,1-5.186,9.082l-9.082-9.082Zm0,0" transform="translate(-48.548 -63.466)" fill="#f3d55b"/>
    <path id="Path_479" data-name="Path 479" d="M71.247,88.281a9.594,9.594,0,0,1-1.564,2.06l-2.059-2.06Zm0,0" transform="translate(-48.613 -63.466)" fill="#f5efca"/>
    <path id="Path_480" data-name="Path 480" d="M40.593,50.218H36.971L24.984,38.233A9.926,9.926,0,0,1,40.593,50.218Zm0,0" transform="translate(-17.959 -25.402)" fill="#f9eab0"/>
  </g>
</svg>
