<svg xmlns="http://www.w3.org/2000/svg" width="193.93" height="63.487" viewBox="0 0 193.93 63.487">
  <g id="plant_milk_makers_logo" transform="translate(-369.5 -28.5)">
    <g id="Group_8" data-name="Group 8" transform="translate(1773.412 -517.109)">
      <g id="Group_7" data-name="Group 7" transform="translate(-1321.78 548.892)">
        <g id="Group_4" data-name="Group 4" transform="translate(2.334 0)">
          <path id="Path_5" data-name="Path 5" d="M-1137.686,597.144V566.065a2.059,2.059,0,0,1,.469-1.5,2.061,2.061,0,0,1,1.5-.469h10.36a15,15,0,0,1,8.189,2.245q3.552,2.246,3.552,8.559a9.964,9.964,0,0,1-2.072,6.733,10.43,10.43,0,0,1-4.637,3.231,14.834,14.834,0,0,1-4.538.839h-5.229v11.445q0,1.58-2.96,1.579h-1.677Q-1137.686,598.722-1137.686,597.144Zm11.987-17.956a4.931,4.931,0,0,0,3.034-.938,3.933,3.933,0,0,0,1.258-3.354,4.01,4.01,0,0,0-1.258-3.379,4.848,4.848,0,0,0-3.034-.962h-4.39v8.633Z" transform="translate(1137.686 -561.428)" fill="#80c627"/>
          <path id="Path_6" data-name="Path 6" d="M-1045.824,584.9v-28.02q0-1.579,2.96-1.579h1.381q2.96,0,2.96,1.579v28.118a2.507,2.507,0,0,0,.42,1.628,1.687,1.687,0,0,0,1.356.493,3.055,3.055,0,0,0,.666-.1,3.079,3.079,0,0,1,.666-.1q.444,0,.79.74a7.934,7.934,0,0,1,.542,1.628,6.982,6.982,0,0,1,.2,1.184q0,2.418-4.736,2.417Q-1045.825,592.887-1045.824,584.9Z" transform="translate(1073.646 -555.297)" fill="#80c627"/>
          <path id="Path_7" data-name="Path 7" d="M-999.119,616.235a7.584,7.584,0,0,1-1.751-5.229,8.48,8.48,0,0,1,2.886-6.561q2.886-2.614,11.272-2.615V600.2a2.491,2.491,0,0,0-.913-2.121,4.917,4.917,0,0,0-2.935-.69,11.156,11.156,0,0,0-2.935.345,15.442,15.442,0,0,0-2.245.789,5.886,5.886,0,0,1-1.135.444q-.494,0-1.085-.74a8.216,8.216,0,0,1-1.036-1.7,3.926,3.926,0,0,1-.444-1.5q0-.839,1.233-1.628a10.851,10.851,0,0,1,3.4-1.282,21.635,21.635,0,0,1,4.785-.493q5.574,0,8.09,2.2a7.6,7.6,0,0,1,2.516,6.043v9.274q0,2.27.123,3.453t.321,2.615a4.963,4.963,0,0,1,.148,1.085q0,.79-2,1.184a18.462,18.462,0,0,1-3.527.394,1.25,1.25,0,0,1-1.233-.715,6.6,6.6,0,0,1-.518-1.554q-.173-.838-.222-1.135a6.672,6.672,0,0,1-1.184,1.406,9.01,9.01,0,0,1-2.467,1.6,8.4,8.4,0,0,1-3.6.74Q-997.368,618.208-999.119,616.235Zm10.581-4.686a5.413,5.413,0,0,0,1.825-2.22v-2.713q-6.907,0-6.906,3.651a2.043,2.043,0,0,0,.641,1.579,2.593,2.593,0,0,0,1.825.592A4.4,4.4,0,0,0-988.537,611.549Z" transform="translate(1042.307 -580.618)" fill="#80c627"/>
          <path id="Path_8" data-name="Path 8" d="M-910.206,616.334V600.7q0-2.171-.123-3.33t-.321-2.59a5.432,5.432,0,0,1-.148-1.036q0-.789,2-1.184a18.486,18.486,0,0,1,3.527-.395,1.267,1.267,0,0,1,1.233.666,5.939,5.939,0,0,1,.518,1.455q.172.79.222,1.086a9.729,9.729,0,0,1,3.157-2.664,8.576,8.576,0,0,1,4.193-1.085q3.7,0,5.476,1.949t1.776,6.043v16.723q0,1.58-2.96,1.578h-1.381q-2.96,0-2.96-1.578V600.7a3.332,3.332,0,0,0-.691-2.294,2.932,2.932,0,0,0-2.269-.764,3.5,3.5,0,0,0-2.343.863,6.665,6.665,0,0,0-1.6,2v15.835q0,1.58-2.96,1.578h-1.381Q-910.206,617.912-910.206,616.334Z" transform="translate(979.515 -580.618)" fill="#80c627"/>
          <path id="Path_9" data-name="Path 9" d="M-820.9,596.7V584.274h-.789a1.21,1.21,0,0,1-1.135-.592,3.863,3.863,0,0,1-.346-1.874v-.839a3.865,3.865,0,0,1,.346-1.874,1.21,1.21,0,0,1,1.135-.592h.789l.641-4.687q.246-1.578,2.664-1.578h1.529q2.466,0,2.467,1.578V578.5h2.417a1.211,1.211,0,0,1,1.135.592,3.875,3.875,0,0,1,.345,1.874v.839a3.873,3.873,0,0,1-.345,1.874,1.211,1.211,0,0,1-1.135.592H-813.6V596.8a2.508,2.508,0,0,0,.419,1.628,1.688,1.688,0,0,0,1.357.493,3.057,3.057,0,0,0,.666-.1,3.083,3.083,0,0,1,.666-.1q.444,0,.789.74a7.911,7.911,0,0,1,.543,1.628,6.968,6.968,0,0,1,.2,1.184q0,2.418-4.736,2.417Q-820.9,604.7-820.9,596.7Z" transform="translate(918.428 -567.106)" fill="#80c627"/>
        </g>
        <g id="Group_6" data-name="Group 6" transform="translate(0 45.107)">
          <g id="Group_5" data-name="Group 5">
            <path id="Path_10" data-name="Path 10" d="M-1140.772,714.892l-1.907-3.411q-.2-.341-.341-.6l-.062.016v6.419q0,.5-.93.5h-.45q-.93,0-.93-.5v-9.923q0-.5.93-.5h.822a1.02,1.02,0,0,1,.977.419l2.573,4.589.155.264.14-.264,2.62-4.589a1.019,1.019,0,0,1,.977-.419h.806q.93,0,.93.5v9.923q0,.5-.93.5h-.449q-.93,0-.93-.5v-6.419l-.062-.016q-.14.264-.341.6l-1.907,3.411a.725.725,0,0,1-.62.295h-.45A.723.723,0,0,1-1140.772,714.892Z" transform="translate(1145.392 -706.086)" fill="#80c627"/>
            <path id="Path_11" data-name="Path 11" d="M-1090.363,706.929v-1.1q0-.573,1.148-.574t1.147.574v1.1q0,.59-1.147.589T-1090.363,706.929Zm0,9.241v-7.179q0-.5.93-.5h.434q.93,0,.93.5v7.179q0,.5-.93.5h-.434Q-1090.363,716.665-1090.363,716.169Z" transform="translate(1107.03 -704.944)" fill="#80c627"/>
            <path id="Path_12" data-name="Path 12" d="M-1064.2,713.533v-8.807q0-.5.93-.5h.434q.93,0,.93.5v8.837a.79.79,0,0,0,.132.512.53.53,0,0,0,.426.155.96.96,0,0,0,.209-.031.993.993,0,0,1,.209-.031q.139,0,.248.233a2.493,2.493,0,0,1,.171.512,2.219,2.219,0,0,1,.062.372q0,.76-1.488.76Q-1064.2,716.045-1064.2,713.533Z" transform="translate(1088.793 -704.23)" fill="#80c627"/>
            <path id="Path_13" data-name="Path 13" d="M-1029.482,715.719q0,.233-.883.233h-.651q-.76,0-.93-.294l-2.155-3.566-.062.016v3.349q0,.5-.93.5h-.434q-.931,0-.93-.5V704.726q0-.5.93-.5h.434q.93,0,.93.5v6.14l.062.015,1.876-2.806a.562.562,0,0,1,.341-.24,2.628,2.628,0,0,1,.6-.054h.574q.868,0,.868.233a.564.564,0,0,1-.14.31l-2.155,3.07,2.527,4A.614.614,0,0,1-1029.482,715.719Z" transform="translate(1069.451 -704.23)" fill="#80c627"/>
            <path id="Path_14" data-name="Path 14" d="M-967.953,714.892l-1.907-3.411q-.2-.341-.341-.6l-.062.016v6.419q0,.5-.93.5h-.449q-.931,0-.93-.5v-9.923q0-.5.93-.5h.822a1.019,1.019,0,0,1,.977.419l2.574,4.589.155.264.14-.264,2.62-4.589a1.019,1.019,0,0,1,.977-.419h.806q.93,0,.93.5v9.923q0,.5-.93.5h-.449q-.93,0-.93-.5v-6.419l-.062-.016q-.14.264-.341.6l-1.907,3.411a.724.724,0,0,1-.62.295h-.45A.724.724,0,0,1-967.953,714.892Z" transform="translate(1024.914 -706.086)" fill="#80c627"/>
            <path id="Path_15" data-name="Path 15" d="M-917.863,723.383a2.384,2.384,0,0,1-.55-1.644,2.666,2.666,0,0,1,.907-2.062q.907-.822,3.543-.822v-.512a.782.782,0,0,0-.287-.667,1.546,1.546,0,0,0-.922-.217,3.514,3.514,0,0,0-.923.108,4.844,4.844,0,0,0-.706.248,1.839,1.839,0,0,1-.357.14q-.155,0-.341-.233a2.573,2.573,0,0,1-.326-.535,1.239,1.239,0,0,1-.14-.473q0-.263.388-.512a3.411,3.411,0,0,1,1.07-.4,6.8,6.8,0,0,1,1.5-.155,3.826,3.826,0,0,1,2.543.69,2.389,2.389,0,0,1,.791,1.9v2.915q0,.713.039,1.085t.1.822a1.562,1.562,0,0,1,.046.341q0,.248-.628.372a5.779,5.779,0,0,1-1.109.124.392.392,0,0,1-.388-.224,2.075,2.075,0,0,1-.163-.489q-.055-.263-.07-.357a2.1,2.1,0,0,1-.372.442,2.817,2.817,0,0,1-.775.5,2.637,2.637,0,0,1-1.132.233A2.219,2.219,0,0,1-917.863,723.383Zm3.325-1.473a1.7,1.7,0,0,0,.574-.7v-.853q-2.171,0-2.171,1.148a.642.642,0,0,0,.2.5.816.816,0,0,0,.574.186A1.384,1.384,0,0,0-914.537,721.91Z" transform="translate(987.158 -712.188)" fill="#80c627"/>
            <path id="Path_16" data-name="Path 16" d="M-869.92,715.719q0,.233-.884.233h-.651q-.76,0-.93-.294l-2.155-3.566-.062.016v3.349q0,.5-.93.5h-.434q-.93,0-.93-.5V704.726q0-.5.93-.5h.434q.93,0,.93.5v6.14l.062.015,1.876-2.806a.562.562,0,0,1,.341-.24,2.63,2.63,0,0,1,.6-.054h.574q.868,0,.868.233a.564.564,0,0,1-.139.31l-2.155,3.07,2.527,4A.614.614,0,0,1-869.92,715.719Z" transform="translate(958.216 -704.23)" fill="#80c627"/>
            <path id="Path_17" data-name="Path 17" d="M-838.067,722.91a4.322,4.322,0,0,1-1-3.031,4.447,4.447,0,0,1,1-3.21,3.692,3.692,0,0,1,2.767-1.023,2.928,2.928,0,0,1,2.535,1.116,4.776,4.776,0,0,1,.814,2.884,1.048,1.048,0,0,1-.318.55q-.318.364-.473.364h-3.954a1.758,1.758,0,0,0,.527,1.256,1.913,1.913,0,0,0,1.256.372,2.894,2.894,0,0,0,.791-.1,7.418,7.418,0,0,0,.744-.256.979.979,0,0,1,.341-.124.518.518,0,0,1,.349.225,2.167,2.167,0,0,1,.326.512,1.174,1.174,0,0,1,.132.442q0,.357-.481.612a3.991,3.991,0,0,1-1.147.38,6.5,6.5,0,0,1-1.163.124A3.931,3.931,0,0,1-838.067,722.91Zm3.884-3.884a2.054,2.054,0,0,0-.279-1.14.934.934,0,0,0-.837-.426q-1.148,0-1.4,1.566Z" transform="translate(931.843 -712.188)" fill="#80c627"/>
            <path id="Path_18" data-name="Path 18" d="M-798.492,723.414V718.5q0-.682-.039-1.046t-.1-.814a1.722,1.722,0,0,1-.046-.326q0-.248.628-.372a5.807,5.807,0,0,1,1.108-.124.4.4,0,0,1,.388.21,1.862,1.862,0,0,1,.163.457c.036.166.059.279.07.341a2.792,2.792,0,0,1,.69-.86,1.547,1.547,0,0,1,1-.318.815.815,0,0,1,.69.256.938.938,0,0,1,.193.581,3.073,3.073,0,0,1-.139.814q-.139.488-.341.488a1.5,1.5,0,0,1-.326-.062,1.616,1.616,0,0,0-.4-.062,1.185,1.185,0,0,0-.736.24,2.046,2.046,0,0,0-.5.535v4.977q0,.5-.93.5h-.434Q-798.492,723.91-798.492,723.414Z" transform="translate(903.687 -712.188)" fill="#80c627"/>
          </g>
        </g>
      </g>
    </g>
    <g id="Group_104" data-name="Group 104" transform="translate(98 -6)">
      <g id="Group_2" data-name="Group 2" transform="translate(284.783 46.415)">
        <path id="Path_1" data-name="Path 1" d="M-1331.552,628.39a24.67,24.67,0,0,0,24.67-24.67,24.547,24.547,0,0,0-4.506-14.205c-.525-.564-.991-1.092-1.383-1.572-4.681-5.736-5.7-4.032-5.993-3.455-.857,2.4,1.828,2.712,3.181,3.721,1.149.857.291,3.5-.626,3.429-.869-.069-1.578-.343-2.881-3.155s-4.835-3.052-5.178-1.2,2.058,3.018,3.978,3.7,4.085,3.168,3.4,3.978c-.619.726-1.689.913-2.5-.514-1.577-2.812-2.606-3.266-3.841-2.778a1.034,1.034,0,0,0-.224,1.907c.524.284,2.282,1.089.944,1.934-1.749.96-1.612-1.269-3.772-2.229a1.993,1.993,0,0,0-2.915,2.263c.475,1.014,4.63,1.44,5.384,3.635,2.229,6.481-7.853,7.71-14.386,4.975a22.781,22.781,0,0,0-17.644-.449.876.876,0,0,0-.351.739A24.666,24.666,0,0,0-1331.552,628.39Z" transform="translate(1356.205 -583.799)" fill="#80c627"/>
        <path id="Path_2" data-name="Path 2" d="M-1262.872,603.31a12.669,12.669,0,0,1-3.018.24,1.472,1.472,0,0,1-1.338-1.612c.172-.995,2.366-1.132,3.532.343Z" transform="translate(1294.191 -595.917)" fill="#80c627"/>
        <path id="Path_3" data-name="Path 3" d="M-1242.36,586.052a6.347,6.347,0,0,1-1.507-.168.738.738,0,0,1-.5-.92c.179-.473,1.271-.332,1.705.5Z" transform="translate(1278.274 -584.423)" fill="#80c627"/>
      </g>
      <path id="Union_1" data-name="Union 1" d="M37.34,62.487h-.1A31.256,31.256,0,0,1,7.02,39.19C4.49,39.024,0,35.53,0,31.244s4.49-7.78,7.02-7.946A31.256,31.256,0,0,1,37.244,0h.192A31.256,31.256,0,0,1,67.659,23.3c2.529.166,7.02,3.66,7.02,7.946s-4.49,7.78-7.02,7.946a31.256,31.256,0,0,1-30.224,23.3ZM10.734,31.244A26.606,26.606,0,1,0,37.34,4.543,26.732,26.732,0,0,0,10.734,31.244Z" transform="translate(272 35)" fill="#80c627" stroke="rgba(0,0,0,0)" stroke-miterlimit="10" stroke-width="1"/>
    </g>
  </g>
</svg>
