<svg width="24" height="24" viewBox="0 0 24 24" fill="none" xmlns="http://www.w3.org/2000/svg">
<path d="M2.5 4.25C2.5 4.05109 2.57902 3.86032 2.71967 3.71967C2.86032 3.57902 3.05109 3.5 3.25 3.5H3.808C4.758 3.5 5.328 4.139 5.653 4.733C5.87 5.129 6.027 5.588 6.15 6.004C6.18327 6.00137 6.21663 6.00004 6.25 6H18.748C19.578 6 20.178 6.794 19.95 7.593L18.122 14.002C17.9581 14.5769 17.6114 15.0827 17.1343 15.4428C16.6572 15.803 16.0758 15.9979 15.478 15.998H9.53C8.92749 15.998 8.34165 15.8002 7.86252 15.4349C7.3834 15.0696 7.0375 14.557 6.878 13.976L6.118 11.204L4.858 6.956L4.857 6.948C4.701 6.381 4.555 5.85 4.337 5.454C4.128 5.069 3.96 5 3.809 5H3.25C3.05109 5 2.86032 4.92098 2.71967 4.78033C2.57902 4.63968 2.5 4.44891 2.5 4.25Z" fill="#80C627"/>
<path d="M9 21C9.53043 21 10.0391 20.7893 10.4142 20.4142C10.7893 20.0391 11 19.5304 11 19C11 18.4696 10.7893 17.9609 10.4142 17.5858C10.0391 17.2107 9.53043 17 9 17C8.46957 17 7.96086 17.2107 7.58579 17.5858C7.21071 17.9609 7 18.4696 7 19C7 19.5304 7.21071 20.0391 7.58579 20.4142C7.96086 20.7893 8.46957 21 9 21Z" fill="#80C627"/>
<path d="M16 21C16.5304 21 17.0391 20.7893 17.4142 20.4142C17.7893 20.0391 18 19.5304 18 19C18 18.4696 17.7893 17.9609 17.4142 17.5858C17.0391 17.2107 16.5304 17 16 17C15.4696 17 14.9609 17.2107 14.5858 17.5858C14.2107 17.9609 14 18.4696 14 19C14 19.5304 14.2107 20.0391 14.5858 20.4142C14.9609 20.7893 15.4696 21 16 21Z" fill="#80C627"/>
</svg>
