<svg width="20" height="20" viewBox="0 0 20 20" fill="none" xmlns="http://www.w3.org/2000/svg">
<path d="M9.9995 0C4.47625 0 0 4.473 0 9.99C0 14.222 2.6355 17.84 6.35604 19.296C6.26795 18.506 6.18988 17.29 6.39007 16.428C6.57224 15.648 7.56318 11.462 7.56318 11.462C7.56318 11.462 7.2639 10.863 7.2639 9.978C7.2639 8.59 8.06967 7.553 9.07362 7.553C9.92743 7.553 10.3388 8.193 10.3388 8.96C10.3388 9.818 9.7923 11.099 9.51103 12.287C9.27581 13.281 10.0105 14.092 10.9914 14.092C12.7681 14.092 14.1354 12.22 14.1354 9.517C14.1354 7.125 12.4148 5.453 9.95846 5.453C7.11276 5.453 5.44217 7.585 5.44217 9.788C5.44217 10.646 5.77348 11.567 6.18688 12.068C6.22201 12.1057 6.24681 12.1519 6.25891 12.202C6.27101 12.2521 6.26999 12.3044 6.25594 12.354C6.17987 12.669 6.01071 13.348 5.97868 13.487C5.93464 13.67 5.83354 13.709 5.64336 13.621C4.39518 13.04 3.61443 11.216 3.61443 9.75C3.61443 6.599 5.90561 3.705 10.2217 3.705C13.691 3.705 16.3866 6.174 16.3866 9.475C16.3866 12.919 14.2135 15.688 11.1976 15.688C10.1837 15.688 9.23177 15.163 8.90546 14.542L8.28187 16.916C8.05665 17.784 7.44707 18.872 7.03969 19.536C7.99871 19.8318 8.99681 19.9818 10.0005 19.981C15.5227 19.981 20 15.508 20 9.991C20 4.474 15.5217 0 9.9995 0Z" fill="#80C627"/>
</svg>


