<svg width="20" height="15" viewBox="0 0 20 15" fill="none" xmlns="http://www.w3.org/2000/svg">
<path d="M10 0C7.10308 0 4.54308 0.2925 2.98077 0.516C1.68846 0.7005 0.646154 1.64925 0.408461 2.90625C0.207692 3.97575 0 5.54025 0 7.5C0 9.45975 0.207692 11.025 0.408461 12.0938C0.646154 13.3507 1.68846 14.3025 2.98077 14.4847C4.55 14.7067 7.11846 15 10 15C12.8815 15 15.4508 14.7075 17.0192 14.484C18.3115 14.3025 19.3538 13.3507 19.5915 12.0938C19.7923 11.0213 20 9.45375 20 7.5C20 5.54625 19.7954 3.97875 19.5915 2.90625C19.3538 1.64925 18.3115 0.7005 17.0192 0.51525C15.4569 0.29325 12.8962 0 10 0ZM10 1.5C12.7946 1.5 15.2915 1.77825 16.8031 1.992C17.1172 2.03578 17.4092 2.17478 17.6379 2.38934C17.8665 2.60389 18.0201 2.88312 18.0769 3.1875C18.2631 4.1775 18.4615 5.64525 18.4615 7.5C18.4615 9.35175 18.2631 10.8225 18.0769 11.8125C18.0211 12.1173 17.8678 12.3971 17.639 12.6118C17.4102 12.8265 17.1176 12.9652 16.8031 13.008C15.2846 13.2217 12.7762 13.5 10 13.5C7.22308 13.5 4.71154 13.2217 3.19692 13.008C2.88262 12.9647 2.59034 12.8258 2.36165 12.6112C2.13295 12.3965 1.97949 12.1171 1.92308 11.8125C1.73692 10.8225 1.53846 9.35775 1.53846 7.5C1.53846 5.64 1.73692 4.1775 1.92308 3.1875C1.97949 2.88293 2.13295 2.60346 2.36165 2.38883C2.59034 2.1742 2.88262 2.03534 3.19692 1.992C4.70538 1.77825 7.20538 1.5 10 1.5ZM7.69231 3.21075V11.79L8.84615 11.157L14.2308 8.157L15.3846 7.5L14.2308 6.84375L8.84615 3.84375L7.69231 3.21075ZM9.23077 5.78925L12.2838 7.5L9.23077 9.21075V5.78925Z" fill="#80C627"/>
</svg>

